<svg width="154" height="91" fill="none" xmlns="http://www.w3.org/2000/svg"><path d="M134.375 55a2.391 2.391 0 00-2.391 2.39v16.752h-3.803c-.938-8.292-8.419-14.254-16.71-13.316a15.109 15.109 0 00-13.316 13.316H48.312V4.813h83.672v7.519a2.391 2.391 0 004.782 0v-9.91a2.39 2.39 0 00-2.391-2.39H45.922a2.39 2.39 0 00-2.39 2.39v2.391H16.153C10.152 4.821 5.289 9.684 5.28 15.686v3.471a2.39 2.39 0 002.39 2.39h2.781l-1.824 21.91A10.865 10.865 0 00.5 53.937v20.206a2.39 2.39 0 002.39 2.39h4.842c.655 8.55 8.117 14.948 16.666 14.293A15.525 15.525 0 0038.69 76.532c.022 0 .038.012.06.012h4.781a2.39 2.39 0 002.39 2.39h52.451c1.703 8.172 9.708 13.416 17.88 11.713a15.112 15.112 0 0011.711-11.712h6.412a2.39 2.39 0 002.391-2.39V57.39a2.391 2.391 0 00-2.391-2.391zM23.211 86.095c-5.941 0-10.758-4.817-10.758-10.758 0-5.941 4.817-10.758 10.758-10.758 5.941 0 10.758 4.817 10.758 10.758-.007 5.938-4.82 10.751-10.758 10.758zM43.53 71.75h-4.78c-.14.015-.279.042-.414.084-1.922-8.353-10.252-13.566-18.605-11.644A15.52 15.52 0 008.107 71.75H5.281V53.936a6.099 6.099 0 016.092-6.091H43.53V71.75zm0-28.688H13.457l1.793-21.515h28.281v21.515zm0-26.296H10.063v-1.081a6.098 6.098 0 016.09-6.091h27.378v7.172zm79.953 59.67a10.312 10.312 0 01-10.314 9.734h-.002a10.33 10.33 0 01-10.156-8.565 2.15 2.15 0 00-.122-2.326c.32-5.687 5.189-10.038 10.876-9.719 5.687.32 10.038 5.189 9.718 10.876z" fill="#6FBA6D"/><path d="M131.984 19.157H98.516a2.39 2.39 0 000 4.782h33.468a2.39 2.39 0 100-4.782zm4.782 26.297H84.172a2.39 2.39 0 000 4.781h52.594a2.39 2.39 0 000-4.78zm-4.782-14.344h-26.296a2.39 2.39 0 100 4.782h26.296a2.39 2.39 0 100-4.782zm9.563-7.171h4.781a2.391 2.391 0 000-4.782h-4.781a2.391 2.391 0 000 4.782zm7.172 21.515h-4.781a2.39 2.39 0 100 4.781h4.781a2.39 2.39 0 000-4.78zm2.39-14.344h-9.562a2.391 2.391 0 000 4.782h9.562a2.39 2.39 0 100-4.782z" fill="#6FBA6D"/></svg>