<svg width="130" height="112" fill="none" xmlns="http://www.w3.org/2000/svg"><path d="M129.318 62.997v-.002l-24.45-61.392a2.543 2.543 0 00-3.302-1.422l-.003.001L2.372 39.679a2.492 2.492 0 00-1.017.808A2.514 2.514 0 000 42.694v66.095a2.542 2.542 0 002.542 2.542h106.769a2.542 2.542 0 002.542-2.542V72.691l16.046-6.391c1.304-.52 1.94-2 1.419-3.303zm-22.549 43.25H5.084V45.236H106.77v61.011zM42.415 40.164l42.566-16.96a20.225 20.225 0 0014.574 6.284l4.245 10.676H42.415zm69.438 27.066V42.694a2.542 2.542 0 00-2.542-2.542h-.04l-5.387-13.53c-.06-.112-.13-.22-.209-.32a2.51 2.51 0 00-2.656-1.957 15.202 15.202 0 01-13.329-5.74 2.52 2.52 0 00-3.261-.57 2.85 2.85 0 00-.359.066L32.105 38.794a2.511 2.511 0 00-1.396 1.358H14.927l86.158-34.306 22.571 56.676-11.803 4.708z" fill="#6FBA6D"/><path d="M11.983 89.085a15.2 15.2 0 0110.263 10.25 2.541 2.541 0 002.435 1.815c.132-.008.263-.028.392-.058.114.032.23.056.348.071h61.011c.105-.014.209-.035.31-.064 1.27.309 2.55-.47 2.86-1.74 0-.005.002-.01.003-.014a15.199 15.199 0 0110.262-10.262 2.51 2.51 0 001.744-2.797c.034-.123.059-.249.074-.376V65.573a2.402 2.402 0 00-.076-.376 2.507 2.507 0 00-1.744-2.797 15.184 15.184 0 01-10.258-10.265 2.512 2.512 0 00-2.817-1.743 2.415 2.415 0 00-.358-.072h-61.01a2.437 2.437 0 00-.38.077 2.511 2.511 0 00-2.796 1.744A15.2 15.2 0 0111.984 62.4a2.51 2.51 0 00-1.744 2.796 2.654 2.654 0 00-.072.376V85.91c.015.12.039.238.072.353a2.517 2.517 0 001.743 2.822zm3.27-22.48a20.172 20.172 0 0011.2-11.2h58.944a20.177 20.177 0 0011.204 11.2v18.273a20.195 20.195 0 00-11.201 11.2H26.453a20.195 20.195 0 00-11.2-11.2V66.605z" fill="#6FBA6D"/><path d="M55.927 90.994c8.423 0 15.252-6.829 15.252-15.252 0-8.425-6.829-15.253-15.252-15.253-8.424 0-15.253 6.828-15.253 15.253.008 8.42 6.832 15.244 15.253 15.252zm0-25.421c5.615 0 10.168 4.553 10.168 10.169 0 5.615-4.553 10.168-10.168 10.168-5.616 0-10.169-4.553-10.169-10.168 0-5.616 4.553-10.169 10.169-10.169zM27.964 79.555a3.813 3.813 0 100-7.627 3.813 3.813 0 000 7.627zm0-5.085a1.271 1.271 0 110 2.543 1.271 1.271 0 010-2.543zm55.926 5.085a3.813 3.813 0 100-7.627 3.813 3.813 0 000 7.627zm0-5.085a1.271 1.271 0 110 2.543 1.271 1.271 0 010-2.543z" fill="#6FBA6D"/></svg>