<svg width="20" height="20" fill="none" xmlns="http://www.w3.org/2000/svg"><path d="M16.167 12.38c-.672-.145-1.203.167-1.674.439-.482.28-1.398 1.024-1.923.834-2.689-1.107-5.218-3.461-6.313-6.16-.193-.537.547-1.46.826-1.947.27-.472.576-1.008.436-1.685-.126-.608-1.754-2.68-2.33-3.246C4.81.24 4.421.035 4.021.002 2.521-.063.844 1.94.55 2.419c-.736 1.022-.732 2.382.013 4.03 1.795 4.43 8.585 11.112 13.03 12.975.82.384 1.57.576 2.245.576.659 0 1.246-.184 1.75-.549.381-.22 2.467-1.98 2.412-3.52-.033-.394-.238-.787-.608-1.167-.562-.581-2.62-2.258-3.224-2.385z" fill="#000" fill-opacity=".18"/></svg>