<svg width="73" height="16" fill="none" xmlns="http://www.w3.org/2000/svg"><path d="M8.719 12.271H3.96L2.793 15.06H0L6.467.275h.128L13.04 15.06H9.78l-1.061-2.79zm-.945-2.376l-1.38-3.463-1.445 3.463h2.825zm13.763-6.674a2.518 2.518 0 00-1.455.338 1.27 1.27 0 00-.52 1.14 1.42 1.42 0 00.754 1.183 8.982 8.982 0 001.996.982 8.516 8.516 0 011.742.845 3.82 3.82 0 011.19 1.31c.337.651.498 1.38.466 2.111a3.848 3.848 0 01-.606 2.1 3.88 3.88 0 01-1.656 1.438 5.719 5.719 0 01-2.644.55 8.54 8.54 0 01-2.527-.381 7.74 7.74 0 01-2.358-1.14l1.296-2.197a6.447 6.447 0 001.688.887c.548.218 1.13.34 1.72.36a3.105 3.105 0 001.562-.381 1.312 1.312 0 00.626-1.257c0-.728-.69-1.362-2.124-1.89a17.89 17.89 0 01-2.05-.93 4.24 4.24 0 01-1.422-1.256 3.501 3.501 0 01-.595-2.112 3.865 3.865 0 011.242-2.946A4.943 4.943 0 0121.102.72a8.733 8.733 0 012.665.359 8.94 8.94 0 012.124 1.056l-1.062 2.112a6.973 6.973 0 00-3.292-1.025zM39.134.803V3.56h-3.483v11.5h-2.836V3.56H29.47V.803h9.664zm4.63 2.757V.802h9.792V3.56h-9.792zm0 5.754V6.558h9.027v2.714l-9.027.042zm2.825 3.084h7.232V15.1H43.764v-2.746l2.825.043zm26.72 2.661H66.67a7.244 7.244 0 01-1.508.158 7.146 7.146 0 01-3.653-.971 7.283 7.283 0 01-2.14-1.868 7.238 7.238 0 01-1.444-5.367 7.228 7.228 0 01.918-2.68 7.412 7.412 0 012.666-2.683 7.179 7.179 0 017.307 0 7.614 7.614 0 012.697 2.682 7.068 7.068 0 01.627 5.935 7.471 7.471 0 01-1.063 2.048h2.284v2.746h-.053zm-11.937-4.826c.39.678.95 1.246 1.625 1.647a4.267 4.267 0 002.272.623 4.149 4.149 0 002.199-.623 4.477 4.477 0 001.56-1.647c.37-.704.564-1.487.564-2.281 0-.797-.202-1.58-.584-2.28a4.319 4.319 0 00-1.56-1.614 4.352 4.352 0 00-6.033 1.613 4.53 4.53 0 00-.585 2.281 4.499 4.499 0 00.542 2.28z" fill="#FAFAFA"/></svg>