<svg width="54" height="52" fill="none" xmlns="http://www.w3.org/2000/svg"><path d="M13.5 4.5C16.085 2.14 20.5 1 27 1s12.5 1.5 16.5 9c-5 1-9.897 1.1-14.5-1.5-7-3.952-12.833-5-15.5-4z" fill="#6FBA6D"/><path d="M4.796 16.524c-.515-3.175.772-9.714 10.04-10.476C26.422 5.095 28.353 15.952 45.731 11L42.5 5c1-1.5 3 1 5.355 2.571 4.174 2.786 2.124 5.715.386 8.19 1.159 1.97 3.514 7.544 3.669 14.096.154 6.553-.58 11.365-.965 12.953-.194.571-.27 1.79.965 2.095 1.545.38 1.93 6.095-2.124 4.952-4.055-1.143-3.283-.762-7.338 0C38.394 50.62 30.284 51 26.422 51s-14.675-.952-16.413-1.524c-1.738-.571-3.282-.762-6.951.381-3.669 1.143-1.545-5.333-.386-4.952 1.158.38.772 1.904 2.896 2.095 2.124.19-7.53-1.714-.386-28.381.643-1.905 4.286-5.143 13.71-2.857l10.812 4.19c1.931.699 6.874 1.715 11.2.19.257-.126.077-.418-2.704-.57-3.475-.191-6.178-.572-15.254-4.381-9.075-3.81-15.447-3.81-18.15 1.333z" fill="#6FBA6D"/><path d="M13.5 4.5C16.085 2.14 20.5 1 27 1s12.5 1.5 16.5 9c-5 1-9.897 1.1-14.5-1.5-7-3.952-12.833-5-15.5-4z" stroke="#519C4F"/><path d="M4.796 16.524c-.515-3.175.772-9.714 10.04-10.476C26.422 5.095 28.353 15.952 45.731 11L42.5 5c1-1.5 3 1 5.355 2.571 4.174 2.786 2.124 5.715.386 8.19 1.159 1.97 3.514 7.544 3.669 14.096.154 6.553-.58 11.365-.965 12.953-.194.571-.27 1.79.965 2.095 1.545.38 1.93 6.095-2.124 4.952-4.055-1.143-3.283-.762-7.338 0C38.394 50.62 30.284 51 26.422 51s-14.675-.952-16.413-1.524c-1.738-.571-3.282-.762-6.951.381-3.669 1.143-1.545-5.333-.386-4.952 1.158.38.772 1.904 2.896 2.095 2.124.19-7.53-1.714-.386-28.381.643-1.905 4.286-5.143 13.71-2.857l10.812 4.19c1.931.699 6.874 1.715 11.2.19.257-.126.077-.418-2.704-.57-3.475-.191-6.178-.572-15.254-4.381-9.075-3.81-15.447-3.81-18.15 1.333z" stroke="#519C4F"/><path d="M16.534 42c2.288-.072 6.781-1.913 6.449-8.696-2.427.435-7.115 2.783-6.449 8.696zm-2.704-.217c.555-2.827.458-8.87-4.368-10.435-.832 2.898-1.124 9.043 4.368 10.435zm2.08-6.957c1.872-1.884 4.743-7.087 1.248-12.826-1.733 1.884-4.41 7.087-1.248 12.826z" fill="#3B7B3A"/><path d="M16.534 42c2.288-.072 6.781-1.913 6.449-8.696-2.427.435-7.115 2.783-6.449 8.696zm-2.704-.217c.555-2.827.458-8.87-4.368-10.435-.832 2.898-1.124 9.043 4.368 10.435zm2.08-6.957c1.872-1.884 4.743-7.087 1.248-12.826-1.733 1.884-4.41 7.087-1.248 12.826z" stroke="#3B7B3A"/><path d="M21 2.852c.5-1.21 2-1.06 3 0-1.5.44-1.5 1.253-3 0zm9.253-.226c.718-.535 1.61-.41 2.36 1.075-1.517.202-1.517.202-2.36-1.075zm-5 2c.718-.535 1.61-.41 2.36 1.075-1.517.202-1.517.202-2.36-1.075zm3.238-.588c-.815.371-1.661.06-2.08-1.55 1.525.124 1.525.124 2.08 1.55zm7.095 3.504c-.026.896-.679 1.518-2.307 1.185.782-1.315.782-1.315 2.307-1.185zm-4-2c-.026.896-.679 1.518-2.307 1.185.782-1.315.782-1.315 2.307-1.185zm8.979 3.347c-.782.437-1.65.197-2.201-1.372 1.53-.004 1.53-.004 2.201 1.372zm-3-3c-.782.437-1.65.197-2.201-1.372 1.53-.004 1.53-.004 2.201 1.372z" fill="#3B7B3A"/></svg>